# xmcd CD database file
#
# Track frame offsets:
#	150
#	24913
#	44565
#	60181
#	77871
#	95201
#	114849
#	135135
#	150864
#	171335
#	189644
#	205905
#	227905
#	245835
#
# Disc length: 3524 seconds
#
# Revision: 8
# Processed by: cddbd v1.5.2PL0 Copyright (c) Steve Scherf et al.
# Submitted via: CDex 1.51
#
DISCID=b00dc20e
DTITLE=RICARDO MONTANER - Exitos
DYEAR=1993
DGENRE=Ballad
TTITLE0=Yo Que Te Amé
TTITLE1=Tan Enamorados
TTITLE2=Solo Con Un Beso
TTITLE3=Vamos A Dejarlo
TTITLE4=Será
TTITLE5=Me Va A Extrañar
TTITLE6=Vamos Pa' La Conga
TTITLE7=Ojos Negros
TTITLE8=La Cima Del Cielo
TTITLE9=Castillo Azul
TTITLE10=Necesito De Tí
TTITLE11=Déjame Llorar
TTITLE12=A Dónde Va El Amor
TTITLE13=Un Mundo Ideal
EXTD=Rodven YEAR: 1993
EXTT0=I Who Loved you
EXTT1=So in Love
EXTT2=Just with a Kiss
EXTT3=
EXTT4=It Will Be
EXTT5=Unchain my Heart
EXTT6=Let's go to the Conga
EXTT7=Black Eyes
EXTT8=The Peak of the Sky
EXTT9=Blue Castle
EXTT10=I'm in Need of you
EXTT11=Let me Cry
EXTT12=Where Love Goes
EXTT13=An Ideal World
PLAYORDER=
